<svg width="14" height="11" fill="none" xmlns="http://www.w3.org/2000/svg"><path d="M9.072 6.003L7.899 7.179c-.475.478-1.312.488-1.798 0L4.93 6.003.717 10.228c.157.072.33.116.514.116H12.77c.183 0 .356-.043.513-.116L9.072 6.003z" fill="#1E88E5"/><path d="M12.77.5H1.23C1.048.5.875.543.718.616l4.5 4.515h.001v.001L6.683 6.6c.155.156.48.156.636 0l1.463-1.468.002-.001 4.5-4.515A1.217 1.217 0 0012.77.5zM.13 1.19c-.08.163-.13.346-.13.54v7.383c0 .195.05.377.13.541l4.22-4.232L.13 1.19zm13.739 0L9.65 5.421l4.219 4.233a1.22 1.22 0 00.13-.542V1.731a1.22 1.22 0 00-.13-.542z" fill="#1E88E5"/></svg>