<svg width="167" height="40" fill="none" xmlns="http://www.w3.org/2000/svg"><g clip-path="url(#clip0_565_4859)"><path d="M22.081 14.01a7.4 7.4 0 01-3.075 6.014 7.364 7.364 0 01-4.319 1.396H-.05v-1.395h14.72c3.076 0 5.613-2.318 5.966-5.308H-.05v-1.395h20.687a5.99 5.99 0 00-5.966-5.309H-.05V6.62h14.72c1.614 0 3.11.52 4.32 1.394a7.401 7.401 0 013.042 5.309c.033.235.05.454.05.689zm50.181-7.39v14.783h1.394v-3.864h15.276a5.46 5.46 0 100-10.92h-16.67zm16.653 9.541H73.656V8.013h15.26a4.07 4.07 0 014.066 4.066 4.073 4.073 0 01-4.067 4.082zM70.28 6.62v14.8h-1.395V8.265l-17.242 11.76-2.034 1.395h-1.445V6.62h1.395v13.153l17.225-11.76 2.05-1.394h1.445zm48.195 0v14.8h-1.378V8.265l-17.242 11.76-2.05 1.395h-1.446V6.62h1.395v13.153l17.242-11.76 2.034-1.394h1.445zm48.214 0v14.8h-1.395V8.265l-8.436 5.746-1.244.857-1.226-.857-8.437-5.746V21.42h-1.394V6.62h1.445l2.05 1.393 7.562 5.158 7.579-5.158 2.034-1.394h1.462zm-24.1 0v10.75a4.015 4.015 0 01-.991 2.655 3.03 3.03 0 01-.404.403 4.015 4.015 0 01-2.655.992h-18.082v-1.395h18.082a2.66 2.66 0 002.655-2.654v-2.654h-16.687a4.02 4.02 0 01-3.042-1.378 3.95 3.95 0 01-1.008-2.654V6.619h1.395v4.049a2.66 2.66 0 002.655 2.654h16.687V6.62h1.395zM41.86 14.179a35.328 35.328 0 01-3.024 2.234v-.168c1.059-.722 2.033-1.445 2.874-2.184.033.034.067.05.1.084.034 0 .05.017.05.034zm-7.78 4.973a36.33 36.33 0 01-3.445 1.495c0-.017 0-.034-.017-.05 0-.051-.016-.085-.016-.135 1.058-.37 2.167-.84 3.327-1.394a.819.819 0 00.118.05c0 .017.016.034.033.034zm2.472-14.986c.05.118.084.236.134.37-.05-.134-.1-.252-.134-.37zm-.706-1.478c.034.067.084.134.118.202-.034-.068-.084-.135-.118-.202zm-.908-1.058c.05.033.101.067.152.117-.068-.05-.118-.084-.152-.117zm-.235 24.93zM30.535 7.593a35.166 35.166 0 00-.454 3.579c-.034.017-.067.05-.1.067-.018.017-.035.017-.051.034a39.74 39.74 0 01.42-3.747c.017 0 .034.017.05.017.05.017.101.034.135.05zm4.015 20.294l.169-.033c-.067.017-.118.017-.168.034zm.169-.033l.201-.067c-.067.017-.134.033-.201.067zm.185-.084l.135-.067a.338.338 0 01-.135.067zm.201-.1l.236-.152c-.068.05-.151.117-.236.151zm.538-.42l.15-.152-.15.151zm.572-.706l.151-.236c-.05.084-.1.151-.151.236zm.536-.958c-.067.134-.117.252-.185.37l.185-.37z" fill="#fff"/><path d="M38.148 7.123l-.555.202-.151.05-.101-.504c-.017-.084-.034-.168-.05-.235l-.05-.252c-.018-.084-.034-.168-.051-.235-.017-.067-.034-.118-.05-.185-.017-.05-.017-.084-.034-.134l-.151-.555c0-.033-.017-.05-.034-.084-.017-.05-.034-.1-.05-.134-.017-.067-.051-.135-.068-.202-.017-.033-.017-.067-.033-.1-.017-.034-.017-.068-.034-.101-.017-.034-.034-.084-.05-.118-.05-.118-.084-.252-.135-.37-.017-.05-.033-.1-.067-.15a.242.242 0 01-.034-.102c-.017-.05-.033-.084-.05-.134s-.034-.084-.05-.134v-.017a.503.503 0 00-.068-.135c-.033-.067-.05-.117-.084-.184a1.718 1.718 0 00-.1-.185c0-.017-.017-.017-.017-.034a.367.367 0 00-.05-.084c-.018-.033-.034-.067-.051-.1V2.89c-.034-.068-.084-.135-.118-.202-.017-.034-.034-.05-.05-.084-.017-.034-.034-.05-.05-.084-.017-.034-.034-.05-.051-.084l-.118-.168a.918.918 0 00-.117-.151.841.841 0 00-.118-.135l-.05-.05-.017-.017c-.017-.017-.034-.05-.067-.067l-.068-.067-.067-.067a.927.927 0 00-.151-.118c-.017-.017-.05-.034-.067-.05-.017-.017-.05-.034-.068-.05-.016-.018-.05-.034-.067-.051l-.1-.05c-.017-.017-.034-.017-.051-.017-.017 0-.034-.017-.05-.017-.017 0-.034-.017-.05-.017-.035-.017-.068-.017-.102-.034-.017 0-.033-.016-.05-.016s-.034 0-.05-.017c-.017 0-.034 0-.05-.017h-.051c-.034 0-.068 0-.101-.017h-.05c-1.446 0-2.723 2.436-3.429 6.065.017 0 .034.017.05.017 1.11.403 2.27.907 3.446 1.495-.017.017-.034.017-.05.033l-.102.05a37.756 37.756 0 00-3.327-1.41c-.017 0-.034-.017-.05-.017-.034-.017-.084-.034-.118-.05-.017 0-.034-.017-.05-.017-3.513-1.21-6.252-1.327-6.975-.068 0 .017-.016.034-.016.034v.017c-.32.605-.152 1.428.42 2.402a.312.312 0 01-.118.034c-.252.1-.47.269-.639.47-.638-.94-.991-1.78-.991-2.47 0-.251.05-.503.151-.705l.05-.1c.84-1.445 4.067-1.26 8.151.218.756-4.267 2.218-7.174 3.882-7.174h.1c.035 0 .051 0 .085.017h.05c.017 0 .034 0 .05.017.034 0 .068.017.102.017.016 0 .033.016.05.016s.034 0 .034.017c.016 0 .016 0 .033.017.017 0 .017.017.034.017s.034.017.05.017c.017 0 .034.016.05.033.034.017.051.034.085.05.033.017.067.034.084.051.033.017.067.05.1.067a.42.42 0 01.101.084c.034.034.068.05.101.084.034.034.067.05.101.084.017.017.05.034.067.067l.084.084.084.084.084.084c.034.034.05.068.084.084.034.034.05.068.068.101.033.034.05.067.067.101a.38.38 0 01.067.1c.017.018.017.034.034.051.033.034.05.084.084.135.033.033.05.084.084.117.017.034.033.05.05.084l.05.101c.017.034.05.084.068.118.017.05.05.084.067.134.151.286.303.605.437.958.033.067.05.134.084.201s.05.135.084.219l.202.554c0 .017.016.034.016.05.034.101.068.202.084.286.017.05.034.084.034.134.017.034.017.068.034.101.017.034.017.067.033.1.05.203.118.404.168.623.017.05.017.1.034.134v.034a6.473 6.473 0 01.168.722c.017.084.034.185.05.285.017.068.034.152.05.219.018.067.018.117.034.185.034.084.05.15.068.218zm-3.429 20.731a.594.594 0 01-.168.034l.168-.034zm.186-.084a.94.94 0 01-.202.067l.202-.067zm.149-.067c-.05.033-.1.05-.134.067l.134-.067zm.286-.185a.925.925 0 01-.235.151l.236-.151zm.454-.42l-.151.151.15-.151zm.572-.79c-.05.084-.1.151-.151.236l.151-.236zm.385-.722c-.067.134-.117.252-.185.37l.185-.37zm1.396-4.67l-.05.252c0 .016-.017.05-.017.067-.017.1-.034.185-.05.285-.017.101-.034.185-.05.286-.018.084-.034.185-.068.269-.017.1-.05.185-.067.285-.017.084-.034.168-.068.252-.016.068-.033.118-.05.185a1.518 1.518 0 00-.605-.201c-.05 0-.1-.017-.151-.017.033-.151.084-.303.117-.454.034-.151.084-.319.118-.47.084-.32.151-.655.218-.991l.152.05c.201.067.386.134.571.202zm-11.176-7.493c-.033.034-.084.067-.117.1-.152.135-.303.253-.454.387a37.006 37.006 0 01-1.412-1.277c.185-.1.353-.252.47-.42.034-.033.051-.084.085-.134.42.437.907.89 1.428 1.344z" fill="#fff"/><path d="M42.064 14.01c3.327-2.788 5.109-5.493 4.268-6.937a.35.35 0 00-.067-.101c-.42-.605-1.294-.89-2.504-.89-.218 0-.437.016-.672.033.067.168.1.37.1.571 0 .084 0 .151-.016.219 0 .033-.017.084-.017.117 1.11 0 1.916.269 2.286.84.017.017.017.034.033.05.723 1.26-.756 3.562-3.546 5.998-.016-.017-.033-.017-.05-.034a35.328 35.328 0 00-3.025-2.234v.168c1.059.723 2.034 1.445 2.874 2.184.017.017.033.017.033.034.034.033.068.05.101.084.017.017.034.017.034.033 2.806 2.436 4.268 4.738 3.546 5.998-.017.017-.017.033-.034.05-.773 1.193-3.495 1.059-6.974-.134-.05-.017-.118-.034-.168-.05 0-.051.017-.101.017-.169 0-.05.017-.1.017-.15.016-.085.016-.169.033-.253.017-.1.034-.201.034-.319.017-.1.033-.218.033-.32v-.05c.017-.084.017-.184.034-.268.017-.101.017-.219.034-.32.016-.134.033-.268.033-.403.017-.117.017-.235.034-.336.017-.15.017-.302.033-.47 0-.05 0-.118.017-.185 0-.067.017-.151.017-.235v-.403c0-.118.017-.236.017-.353 0-.202.017-.403.017-.622v-2.301c0-.202-.017-.42-.017-.622 0-.117-.017-.235-.017-.353v-.402c0-.068-.017-.152-.017-.22 0-.066-.017-.134-.017-.2 0-.085-.016-.152-.016-.236 0-.067-.017-.134-.017-.218 0-.068-.017-.135-.017-.202v-.067c0-.05-.017-.101-.017-.151l-.05-.588c0-.068-.017-.118-.017-.185s-.017-.135-.017-.202a2.058 2.058 0 01-.033-.319 1.836 1.836 0 01-.034-.32c-.017-.083-.017-.167-.034-.251-.016-.101-.033-.219-.05-.32.05-.016.118-.033.168-.05a20.8 20.8 0 011.882-.57.506.506 0 01-.067-.135 1.45 1.45 0 01-.135-.605v-.017c-.588.168-1.193.353-1.814.571-.05.017-.101.034-.168.05l-.555.202a.597.597 0 00-.151.067 42.136 42.136 0 00-3.176 1.412c-.017.016-.034.016-.05.033l-.102.05c-.017.017-.033.017-.05.034a47.79 47.79 0 00-2 1.092c-.672.387-1.328.79-1.95 1.193-.016.017-.033.017-.05.034-.033.016-.067.05-.1.067-.017.017-.034.017-.051.033a41.079 41.079 0 00-2.823 2.033c-.05.034-.084.067-.135.1-.15.135-.302.253-.453.387a.841.841 0 00-.135.118c-3.16 2.688-4.873 5.292-4.184 6.737l.05.1c.84 1.445 4.067 1.26 8.15-.218.757 4.267 2.219 7.173 3.883 7.173h.117l.084-.016c.017 0 .034 0 .05-.017l.169-.034.201-.067.135-.067c.017-.017.033-.017.05-.034l.236-.151.084-.067c.033-.017.05-.05.084-.067l.033-.034.034-.034c.033-.016.05-.05.067-.067l.151-.15c.017-.035.05-.051.067-.085l.068-.084c.016-.034.05-.067.067-.084l.067-.1c.017-.034.05-.068.067-.101.017-.034.05-.068.067-.101l.152-.236.134-.235c.017-.033.05-.084.067-.117l.185-.37a1.414 1.414 0 01-.722-.32.203.203 0 01-.084-.083c-.068.117-.135.235-.202.336-.017.034-.05.067-.067.1-.084.135-.185.253-.27.354-.016.033-.05.05-.066.084-.017.033-.05.05-.068.067l-.05.05c-.067.05-.118.118-.185.168-.017.017-.033.034-.067.05-.034.017-.05.034-.084.05a1.13 1.13 0 01-.185.119c-.067.033-.118.067-.185.084-.017 0-.033.016-.05.016s-.034.017-.05.017c-.017 0-.034.017-.068.017-.033.017-.067.017-.1.017-.017 0-.034 0-.051.017h-.184c-1.446 0-2.723-2.436-3.43-6.082 0-.017 0-.034-.016-.05 0-.05-.017-.084-.017-.135 0-.017 0-.033-.017-.05a35.17 35.17 0 01-.453-3.578c-.034-.017-.067-.05-.101-.068-.017-.016-.034-.016-.05-.033a39.83 39.83 0 00.42 3.746c0 .017 0 .034.016.05-3.512 1.21-6.251 1.328-6.974.068 0-.017-.017-.017-.017-.034-.672-1.26.807-3.561 3.597-5.98.05-.034.084-.085.134-.118a32.166 32.166 0 002.823 2.032c.017.017.034.017.05.034.035.017.068.05.102.067.017.017.033.017.05.034.622.403 1.277.806 1.95 1.193a47.79 47.79 0 002 1.092c.016.016.033.016.05.033l.1.05c.017.017.034.017.05.034 1.093.538 2.152 1.025 3.177 1.411l.151.05.555.202c.05.017.1.034.168.05 3.916 1.395 7.025 1.58 7.932.27.017-.034.033-.068.067-.101.89-1.378-.874-4.082-4.201-6.888zM29.88 15.64a35.728 35.728 0 01-2.201-1.63 35.687 35.687 0 012.201-1.629 51.646 51.646 0 00-.033 1.63c.016.554.016 1.109.033 1.63zm7.714-7.34l.05.386c.017.068.017.152.034.219.017.117.033.252.05.37.017.117.034.218.034.335.017.118.033.236.033.336.017.118.017.236.034.353.017.118.017.235.034.353 0 .05.016.118.016.168 0 .05.017.118.017.185a38.242 38.242 0 00-1.395-.84c-.47-.269-.957-.538-1.428-.79a49.169 49.169 0 012.52-1.075zm.285 9.072c0 .067-.016.117-.016.185 0 .067-.017.117-.017.168 0 .05-.017.117-.017.168 0 .05-.017.117-.017.168 0 .05-.017.1-.017.168-.016.1-.016.201-.033.319v.05a2.045 2.045 0 00-.034.32c0 .05-.017.083-.017.134-.016.168-.05.336-.067.504-.017.067-.017.134-.033.201a28.378 28.378 0 01-2.504-1.092c.47-.252.958-.52 1.428-.79.47-.268.941-.553 1.395-.84-.034.102-.034.22-.05.337zm.118-2.134v.185c0 .118 0 .235-.017.336v.319c0 .135-.016.27-.016.387 0 .1-.017.201-.017.302v.05c-.47.303-.975.605-1.48.89a67.93 67.93 0 01-1.512.84c-.016 0-.033-.016-.05-.033a38.336 38.336 0 01-2.437-1.293 43.638 43.638 0 01-2.353-1.462c-.016-.017-.033-.017-.05-.033-.017-.572-.034-1.143-.034-1.73 0-.589.017-1.16.034-1.731.017-.017.034-.017.05-.034a35.1 35.1 0 012.353-1.461c.824-.47 1.647-.908 2.437-1.294.017-.017.034-.017.05-.034.505.27 1.009.538 1.513.824.504.285 1.008.588 1.479.89v.067c0 .101.017.202.017.32.016.134.016.285.016.42 0 .1.017.184.017.285 0 .118.017.235.017.353v1.393c0 .437 0 .84-.017 1.243z" fill="#fff"/><path d="M42.97 6.67c0 .083 0 .15-.016.218 0 .05-.017.084-.034.117a1.291 1.291 0 01-2.336.336.503.503 0 01-.067-.134 1.227 1.227 0 01-.134-.554v-.068c0-.05.017-.117.017-.168a1.284 1.284 0 011.277-1.041c.47 0 .874.252 1.109.621.033.05.05.084.067.135.067.168.118.336.118.537zm-17.444 4.636c0 .219-.05.42-.152.605-.017.05-.05.084-.084.134-.117.185-.285.32-.487.42-.05.034-.101.05-.151.068a1.16 1.16 0 01-.42.067 1.294 1.294 0 01-1.294-1.294c0-.218.05-.437.15-.621.017-.05.051-.084.085-.135a1.27 1.27 0 01.605-.47.311.311 0 01.117-.034c.101-.033.219-.033.32-.033.74 0 1.31.57 1.31 1.293zm12.738 12.768c0 .705-.555 1.277-1.26 1.293h-.152a1.174 1.174 0 01-.706-.302c-.033-.034-.067-.05-.1-.084a1.269 1.269 0 01-.37-.907c0-.689.554-1.26 1.243-1.294h.152c.218.017.437.084.605.202.05.034.1.067.134.1.269.253.454.605.454.992zM36.87 14.01a2.589 2.589 0 01-5.177 0 2.589 2.589 0 012.588-2.586c1.446.017 2.588 1.159 2.588 2.587zM.318 21.05v-.672h14.369a6.36 6.36 0 006.318-5.628l.05-.403H.319v-.672h20.738l-.05-.403a6.349 6.349 0 00-6.32-5.628H.319v-.672h14.369c1.479 0 2.907.453 4.117 1.327.622.437 1.16.974 1.596 1.596a7.072 7.072 0 011.294 3.46c.017.253.034.454.034.656s-.017.42-.034.672a7.073 7.073 0 01-1.294 3.444 6.549 6.549 0 01-1.596 1.596 6.959 6.959 0 01-4.117 1.327H.318zm72.295 0V6.972h16.301a5.106 5.106 0 015.109 5.107 5.106 5.106 0 01-5.109 5.107H73.285v3.864h-.672zm.672-4.536h15.63a4.442 4.442 0 004.436-4.435 4.432 4.432 0 00-4.437-4.435H73.285v8.87zm-4.032 4.536V7.593L49.49 21.05h-.974V6.972h.672v13.473L68.95 6.972h.974V21.05h-.672zm48.197 0V7.593L97.688 21.05h-.975V6.972h.672v13.473l19.763-13.473h.974V21.05h-.672zm48.198 0V7.593l-8.991 6.132-1.042.706-1.025-.706-8.991-6.132V21.05h-.689V6.972h.992l9.713 6.636 9.73-6.636h.975V21.05h-.672zm-44.837 0v-.672h17.712a3.004 3.004 0 003.008-3.007v-3.024h-17.023c-.891 0-1.748-.32-2.42-.907-.135-.118-.252-.219-.353-.353a3.596 3.596 0 01-.924-2.42V6.973h.672v3.696a3.004 3.004 0 003.008 3.007h17.04V6.972h.672V17.37a3.665 3.665 0 01-1.26 2.772 3.677 3.677 0 01-2.437.907h-17.695zM41.86 14.179a35.328 35.328 0 01-3.024 2.234v-.168c1.059-.722 2.033-1.445 2.874-2.184.033.034.067.05.1.084.034 0 .05.017.05.034zm-7.78 4.973a36.33 36.33 0 01-3.445 1.495c0-.017 0-.034-.017-.05 0-.051-.016-.085-.016-.135 1.058-.37 2.167-.84 3.327-1.394a.819.819 0 00.118.05c0 .017.016.034.033.034zm2.472-14.986c.05.118.084.236.134.37-.05-.134-.1-.252-.134-.37zm-.706-1.478c.034.067.084.134.118.202-.034-.068-.084-.135-.118-.202zm-.908-1.058c.05.033.101.067.152.117-.068-.05-.118-.084-.152-.117zm-.235 24.93zM30.535 7.593a35.166 35.166 0 00-.454 3.579c-.034.017-.067.05-.1.067-.018.017-.035.017-.051.034a39.74 39.74 0 01.42-3.747c.017 0 .034.017.05.017.05.017.101.034.135.05zm4.015 20.294l.169-.033c-.067.017-.118.017-.168.034zm.169-.033l.201-.067c-.067.017-.134.033-.201.067zm.185-.084l.135-.067a.338.338 0 01-.135.067zm.201-.1l.236-.152c-.068.05-.151.117-.236.151zm.538-.42l.15-.152-.15.151zm.572-.706l.151-.236c-.05.084-.1.151-.151.236zm.536-.958c-.067.134-.117.252-.185.37l.185-.37z" fill="#fff"/><path d="M23.107 9.811c-.454-.74-.689-1.394-.689-1.915 0-.202.034-.387.118-.555.016-.033.016-.05.033-.084.252-.42.756-.638 1.294-.739-.336.168-.605.403-.773.706l-.017.033v.034c-.319.622-.252 1.428.236 2.386a.604.604 0 00-.202.134zm14.57-2.99l-.05-.252-.05-.252V6.3c-.018-.084-.035-.151-.051-.219-.017-.067-.034-.117-.05-.184-.017-.05-.017-.101-.034-.135-.05-.185-.101-.386-.152-.57 0-.035-.05-.186-.067-.236a.947.947 0 00-.067-.202s-.034-.084-.034-.117c-.016-.034-.016-.067-.033-.101s-.034-.084-.05-.118c-.051-.117-.085-.252-.135-.37-.017-.05-.034-.1-.067-.167 0 0-.034-.084-.05-.101-.017-.05-.034-.084-.051-.134-.017-.034-.034-.084-.05-.118 0-.017 0-.017-.017-.034a.503.503 0 00-.068-.134c-.033-.067-.05-.118-.084-.185l-.1-.201-.017-.05c-.017-.034-.034-.068-.05-.085a.367.367 0 00-.051-.084l-.017-.017c-.033-.067-.084-.134-.117-.218a.367.367 0 01-.05-.084l-.051-.067c-.017-.034-.034-.067-.068-.084-.05-.067-.084-.118-.134-.185-.034-.05-.084-.1-.118-.151-.033-.05-.084-.101-.117-.151-.017-.017-.034-.034-.05-.068l-.017-.016-.068-.068-.084-.084c-.033-.033-.05-.05-.084-.067-.05-.05-.117-.1-.168-.134-.017-.017-.05-.034-.067-.05-.034-.017-.067-.051-.1-.068-.018-.017-.051-.033-.085-.05-.034-.017-.084-.05-.118-.067-.016-.017-.033-.017-.067-.034-.017-.017-.05-.017-.067-.034l-.05-.016a.311.311 0 00-.118-.034L34.4.991c-.017 0-.034 0-.034-.017-.033 0-.05-.016-.084-.016h-.05c-.034 0-.084 0-.118-.017h-.117c-.353 0-.69.117-1.009.336.404-.487.84-.756 1.26-.773h.27c.033 0 .067.017.084.017l.05.017.084.033s.067.034.084.034c.034.017.05.017.067.033.034.017.05.034.068.034a.353.353 0 01.1.067c.034.017.068.05.101.067.034.017.05.05.084.068.034.016.05.05.084.067l.05.05.068.067.067.068c.034.033.05.05.067.084.017.033.05.05.068.084.016.033.05.05.067.084a.35.35 0 01.067.1c.034.034.05.068.067.101.017.017.017.034.034.034.033.05.067.084.084.134.033.034.05.084.067.118l.067.117.034.05c.017.034.05.085.067.118l.067.135c.152.269.286.588.42.924.034.067.05.134.084.201.034.068.05.135.084.202.068.168.135.353.185.554l.017.05c.034.102.067.186.084.286a.51.51 0 01.034.135c.017.033.017.067.033.084l.034.1c.05.202.118.404.168.605.017.05.034.151.034.151.017.068.033.135.05.185.05.185.084.353.118.538.017.084.033.185.05.269.017.067.034.134.05.218 0 .034.017.05.017.084-.016 0-.016.017-.033.017 0-.017 0-.05-.017-.067zm-2.958 21.033a.594.594 0 01-.168.034l.168-.034zm.186-.084a.94.94 0 01-.202.067l.202-.067zm.149-.067c-.05.033-.1.05-.134.067l.134-.067zm.286-.185a.925.925 0 01-.235.151l.236-.151zm.454-.42l-.151.151.15-.151zm.572-.79c-.05.084-.1.151-.151.236l.151-.236zm.385-.722c-.067.134-.117.252-.185.37l.185-.37zm.673-3.326c0-.017.017-.05.017-.068.033-.15.084-.319.117-.47.05-.185.084-.386.135-.588.017 0 .017.017.033.017l-.05.285c-.017.084-.034.185-.05.27l-.017.033v.05l-.05.202c-.017.1-.051.185-.068.285v.017c-.017-.017-.034-.017-.067-.033zM26.4 13.44a12.994 12.994 0 01-.857-.79l.05-.05c.27.268.555.537.858.806-.034.017-.05.017-.05.034zm7.9 14.111c-.454 0-.891-.268-1.311-.772.32.218.655.319.991.336l.017.017.151-.017h.135l.033-.017h.034c.05-.017.1-.017.134-.034.017 0 .05-.017.068-.017.017 0 .033-.016.05-.016.034-.017.067-.017.084-.034.067-.034.151-.067.219-.1a1.54 1.54 0 00.218-.135c.017-.017.05-.034.084-.067.017-.017.05-.034.067-.05.068-.051.135-.101.202-.186l.05-.05c.017-.017.05-.05.068-.084l.084-.084c.1-.117.201-.235.285-.37.017-.033.05-.067.068-.117v-.017l.201.1-.05.102-.135.218-.134.218c-.017.034-.034.05-.05.084-.017.034-.034.068-.068.085l-.067.1c-.017.017-.034.05-.067.084l-.067.084-.068.067-.134.152-.05.05-.084.067-.05.05-.068.051-.219.151c-.016 0-.016.017-.033.017l-.118.05-.151.05-.151.034-.084.017c-.034-.017-.068-.017-.084-.017zm9.46-5.947c-1.377 0-3.226-.386-5.293-1.142-.05-.017-.1-.034-.168-.05l-.554-.202-.152-.05c-.94-.37-1.899-.79-2.873-1.277l.201.1c.858.42 1.715.79 2.538 1.093l.403.15.067-.436c.017-.067.017-.134.034-.202.034-.168.05-.336.067-.504 0-.05.017-.084.017-.134.017-.1.034-.202.034-.32v-.05c.017-.1.017-.201.033-.319l.034-.336c0-.067.017-.117.017-.185 0-.05.017-.117.017-.168 0 0 .016-.134.016-.184.017-.118.017-.236.034-.353l.017-.168v-.151.017c0 .067 0 .117-.017.168-.017.15-.017.319-.034.47-.016.117-.016.218-.033.336-.017.134-.017.269-.034.403-.017.1-.017.218-.033.32-.017.083-.017.184-.034.268v.05c-.017.101-.017.202-.034.303v.017c-.017.1-.033.201-.033.302-.017.084-.017.168-.034.252a2.1 2.1 0 01-.05.32l-.05.285.268.1c.05.017.118.034.168.068 1.882.655 3.546.991 4.823.991 1.277 0 2.151-.336 2.571-.991l.034-.05c.185-.32.252-.673.235-1.076.236.622.252 1.143.017 1.529-.017.017-.017.034-.033.05l-.017.017c-.286.47-1.059.74-2.168.74zm-19.896-.084c-.555-.1-1.059-.319-1.294-.739v-.05l-.05-.067c-.522-1.244 1.075-3.68 4.117-6.267l.134-.1a7.84 7.84 0 01.454-.37l.117-.1a33.58 33.58 0 012.521-1.832l-.168.118a34.54 34.54 0 00-2.218 1.646l-.336.285.336.286a34.578 34.578 0 002.218 1.646l.218.152a34.566 34.566 0 01-2.554-1.865l-.235-.185-.219.185c-.05.05-.1.084-.134.117-3.025 2.621-4.37 4.923-3.714 6.334v.151l.1.05c.152.236.387.437.707.605zm14.385-10.684s-.017-.135-.017-.202c-.017-.117-.017-.235-.034-.353-.016-.117-.016-.235-.033-.352-.017-.118-.017-.236-.034-.353a2.489 2.489 0 01-.033-.336c-.017-.135-.034-.252-.05-.387-.018-.067-.018-.15-.035-.218a2.48 2.48 0 00-.067-.386l-.067-.437-.403.151c-.824.32-1.664.689-2.538 1.092l-.218.1c.974-.486 1.95-.906 2.873-1.276l.152-.05.554-.202c.05-.017.101-.034.168-.05.488-.168.941-.32 1.395-.454 0 .017.017.034.017.067-.487.135-.992.286-1.513.47l-.168.068-.269.1.05.286c.018.101.035.202.051.32.017.083.017.167.034.251.017.101.034.202.034.303.016.1.033.201.033.319a.808.808 0 01.017.202c0 .067.017.134.017.184l.05.572c0 .05.017.1.017.15 0 .018.017.202.017.253 0 .067.017.134.017.218 0 .084.033.454.033.454-.017-.05-.05-.504-.05-.504zm7.747-2.067c.017-.386-.05-.739-.235-1.058-.017-.017-.017-.034-.034-.067-.37-.588-1.11-.924-2.185-.991 0-.084 0-.152-.016-.219h.218c1.042 0 1.781.235 2.151.655v.034l.084.084c.017.017.017.034.034.05.218.37.218.89-.017 1.512z" fill="#fff"/><path d="M41.676 7.61a.938.938 0 01-.79-.437l-.05-.1a.83.83 0 01-.084-.404v-.05c0-.034 0-.084.017-.134a.944.944 0 011.73-.302c.018.033.034.066.051.1.05.118.084.252.084.386 0 .05 0 .101-.017.168 0 .034-.017.05-.017.084a.99.99 0 01-.924.69zm-17.444 4.62a.94.94 0 01-.823-1.394.367.367 0 01.05-.084.961.961 0 01.437-.336c.034-.017.05-.017.084-.034.084-.017.151-.033.235-.033a.94.94 0 01.941.94.979.979 0 01-.1.437l-.05.101a.874.874 0 01-.354.302.952.952 0 01-.42.1zm12.74 12.785h-.084a.898.898 0 01-.52-.219.131.131 0 01-.068-.067.958.958 0 01-.269-.655.94.94 0 01.89-.94h.103a.897.897 0 01.437.15c.033.017.067.05.1.068.202.184.32.436.32.705a.944.944 0 01-.908.94v.018zm-2.672-8.77a2.24 2.24 0 01-2.235-2.234 2.23 2.23 0 012.218-2.234c.605 0 1.16.235 1.58.655.42.42.655.974.655 1.579 0 .588-.236 1.16-.656 1.58-.42.42-.974.654-1.563.654z" fill="#1E88E5"/><path d="M3.176 38.807v-2.1H.555v2.1h-.723V34.02h.723v2.033h2.621V34.02h.706v4.788h-.706zm5.512 0l-.555-1.21H5.747l-.538 1.21h-.756l2.185-4.788h.622l2.184 4.788h-.756zm-.84-1.848l-.908-2.033-.907 2.033h1.815zm2.436 1.932c-.184 0-.386-.05-.604-.134l-.101-.05.218-.622.118.05c.151.05.269.084.386.084.252 0 .47-.134.639-.437l.1-.168-1.915-3.628h.79l1.512 2.94 1.546-2.94h.757L11.562 38a1.8 1.8 0 01-.555.655c-.235.168-.47.235-.723.235zm6.706-.084v-1.83c-.453.167-.89.268-1.327.268-.555 0-1.009-.134-1.328-.42-.32-.286-.487-.689-.487-1.176v-1.63h.705v1.563c0 .319.101.554.286.722.202.168.487.269.857.269.42 0 .84-.1 1.277-.286v-2.285h.706v4.805h-.689zm5.342 0v-2.1h-2.621v2.1h-.723V34.02h.723v2.033h2.622V34.02h.705v4.788h-.706zm4.119.033c-.47 0-.907-.1-1.277-.318a2.387 2.387 0 01-.907-.874c-.219-.37-.32-.79-.32-1.243 0-.454.118-.874.32-1.243.218-.37.52-.655.907-.874a2.53 2.53 0 011.277-.32c.47 0 .908.102 1.277.32.387.202.69.504.908.874.218.37.336.79.336 1.243 0 .453-.118.873-.336 1.243-.219.37-.521.672-.908.874-.37.218-.806.319-1.277.319zm0-4.2a1.764 1.764 0 00-1.563.875 1.823 1.823 0 00-.235.907c0 .336.084.638.235.907.152.269.37.487.639.638a1.937 1.937 0 001.848 0c.27-.151.488-.37.64-.638.15-.269.234-.571.234-.907 0-.336-.084-.639-.235-.907a1.665 1.665 0 00-.639-.639 1.842 1.842 0 00-.924-.235zm5.125 1.446h-1.949v.638h1.95v-.638zm4.336 2.721v-4.133h-2.655v4.133h-.706V34.02h4.067v4.788h-.706zm2 0V34.02h1.832c.605 0 1.092.151 1.445.437.353.302.538.722.538 1.243 0 .521-.185.941-.538 1.227-.353.285-.84.436-1.445.436h-1.11v1.445h-.722zm1.815-2.1c.42 0 .74-.084.958-.269.218-.168.32-.42.32-.739 0-.336-.102-.588-.32-.756-.218-.184-.538-.268-.958-.268h-1.092v2.032h1.092zm4.925 2.133c-.47 0-.907-.1-1.277-.318a2.388 2.388 0 01-.907-.874c-.219-.37-.32-.79-.32-1.243 0-.454.118-.874.32-1.243.218-.37.52-.655.907-.874a2.53 2.53 0 011.277-.32c.47 0 .908.102 1.278.32.386.202.689.504.907.874.218.37.336.79.336 1.243 0 .453-.117.873-.32 1.243a2.27 2.27 0 01-.907.874 2.595 2.595 0 01-1.294.319zm0-4.2a1.89 1.89 0 00-.924.236 1.67 1.67 0 00-.639.639 1.824 1.824 0 00-.235.907c0 .336.084.638.236.907.15.269.37.487.638.638.269.151.588.235.924.235.337 0 .656-.084.925-.235.269-.151.487-.37.638-.638.151-.269.235-.571.235-.907 0-.336-.084-.639-.235-.907a1.666 1.666 0 00-.638-.639 1.889 1.889 0 00-.925-.235zm6.772 4.167V35.28l-2.739 3.528h-.605V34.02h.706v3.545l2.74-3.545h.62v4.788h-.722zm3.278.033c-.32 0-.639-.05-.925-.15a2.463 2.463 0 01-.823-.454l-.067-.067.285-.571.118.1c.185.168.403.286.639.37.235.084.487.134.739.134.235 0 .454-.033.639-.117a1.08 1.08 0 00.453-.303.658.658 0 00.152-.436.603.603 0 00-.27-.521c-.184-.135-.453-.202-.806-.202h-1.092v-.621h1.075c.286 0 .521-.068.69-.185a.552.552 0 00.218-.47.625.625 0 00-.286-.538c-.202-.134-.47-.218-.807-.218a2.6 2.6 0 00-.621.084c-.219.067-.42.15-.605.268l-.118.084-.252-.621.084-.05c.47-.286.975-.42 1.53-.42.319 0 .621.05.89.15.269.101.504.27.655.47.168.203.252.455.252.74 0 .269-.084.504-.218.706a.925.925 0 01-.336.285c.185.084.336.202.47.336.185.219.286.488.286.773 0 .286-.1.554-.269.773a1.62 1.62 0 01-.706.487 2.455 2.455 0 01-.974.185zm2.872-.033V34.02h2.017c.504 0 .924.101 1.21.32.302.218.453.537.453.957 0 .286-.067.52-.218.723a.874.874 0 01-.32.285c.202.084.37.185.488.336.185.218.269.487.269.823 0 .437-.151.773-.47 1.008-.303.235-.74.336-1.311.336h-2.118zm2.151-.621c.941 0 1.059-.437 1.059-.756 0-.32-.118-.74-1.059-.74h-1.428v1.496h1.428zm-.151-2.1c.32 0 .571-.067.74-.185.15-.118.235-.286.235-.538a.674.674 0 00-.236-.537c-.168-.135-.42-.185-.739-.185h-1.277v1.445h1.277zm4.99 2.754c-.47 0-.907-.1-1.277-.318a2.388 2.388 0 01-.907-.874c-.219-.37-.32-.79-.32-1.243 0-.454.118-.874.32-1.243.218-.37.52-.655.907-.874a2.53 2.53 0 011.277-.32c.471 0 .908.102 1.278.32.386.202.689.504.907.874.219.37.336.79.336 1.243 0 .453-.117.873-.336 1.243-.218.37-.52.672-.907.874-.37.218-.807.319-1.278.319zm0-4.2a1.89 1.89 0 00-.924.236 1.66 1.66 0 00-.638.639 1.823 1.823 0 00-.236.907c0 .336.084.638.236.907.15.269.37.487.638.638.27.151.588.235.924.235.337 0 .656-.084.925-.235.269-.151.487-.37.638-.638.152-.269.236-.571.236-.907 0-.336-.084-.639-.236-.907a1.665 1.665 0 00-.638-.639 1.842 1.842 0 00-.925-.235zm7.041 5.192v-1.025h-3.73v1.025h-.69v-1.68h.353c.236-.017.404-.218.505-.622.117-.453.184-1.092.218-1.915l.05-1.596h3.311v4.133h.69v1.68h-.707zm-.722-1.68v-3.477h-1.95l-.033.99a11.15 11.15 0 01-.168 1.731c-.068.32-.152.571-.27.756h2.42zm4.253.688c-.471 0-.908-.1-1.278-.318a2.127 2.127 0 01-.89-.874c-.219-.37-.32-.79-.32-1.243 0-.454.118-.874.32-1.243.218-.37.52-.672.907-.874.387-.201.807-.32 1.277-.32.353 0 .69.068.975.186.303.117.555.302.773.52l.084.084-.47.47-.084-.083c-.337-.336-.757-.504-1.26-.504-.337 0-.656.084-.925.235a1.84 1.84 0 00-.656.639 1.823 1.823 0 00-.235.907c0 .336.084.638.236.907.15.269.37.47.655.638.269.151.588.235.924.235.521 0 .925-.168 1.26-.504l.085-.084.47.47-.084.085c-.218.235-.47.403-.773.52a3.133 3.133 0 01-.991.152z" fill="#fff"/><path d="M78.53 38.807v-4.133h-1.596v-.655h3.915v.656h-1.596v4.132h-.723zm2.923 0V34.02h2.017c.504 0 .924.101 1.21.32.302.218.453.537.453.957 0 .286-.067.52-.218.723a1.103 1.103 0 01-.32.302c.202.084.37.185.488.336.185.202.286.487.286.823 0 .437-.151.773-.47 1.008-.303.235-.74.336-1.312.336h-2.134v-.017zm2.134-.621c.941 0 1.06-.437 1.06-.756 0-.32-.119-.74-1.06-.74h-1.411v1.496h1.411zm-.134-2.1c.32 0 .571-.067.74-.185.15-.118.235-.303.235-.538a.674.674 0 00-.236-.537c-.168-.135-.42-.185-.74-.185h-1.276v1.445h1.277zm2.875 2.721V34.02h3.378v.656H87.05v1.377h2.352v.655H87.05v1.445h2.739v.655h-3.462zm7.628 0v-2.1h-2.605v2.1h-.722V34.02h.722v2.033h2.605V34.02h.706v4.788h-.706zm5.344 0v-2.1h-2.62v2.1h-.706V34.02h.706v2.033h2.62V34.02h.706v4.788H99.3zm4.134.033c-.471 0-.908-.1-1.278-.318a2.387 2.387 0 01-.907-.874 2.409 2.409 0 01-.319-1.243c0-.454.117-.874.319-1.243a2.39 2.39 0 01.907-.874c.387-.218.807-.32 1.278-.32.47 0 .907.102 1.277.32.386.202.689.504.907.874.219.37.336.79.336 1.243 0 .453-.117.873-.336 1.243a2.27 2.27 0 01-.907.874 2.536 2.536 0 01-1.277.319zm0-4.2c-.336 0-.639.068-.925.236a1.66 1.66 0 00-.638.639 1.825 1.825 0 00-.235.907c0 .336.084.638.235.907.151.269.369.487.638.638a1.941 1.941 0 001.849 0 1.67 1.67 0 00.639-.638c.151-.269.235-.571.235-.907 0-.336-.084-.639-.235-.907a1.67 1.67 0 00-.639-.639 1.937 1.937 0 00-.924-.235zm3.414 4.167V34.02h3.361v.656h-2.639v1.377h2.353v.655h-2.353v1.445h2.739v.655h-3.461zm8.115.033c-.471 0-.908-.1-1.277-.318a2.39 2.39 0 01-.908-.874 2.409 2.409 0 01-.319-1.243c0-.454.118-.874.319-1.243a2.39 2.39 0 01.908-.874c.386-.218.806-.32 1.277-.32.47 0 .907.102 1.277.32.387.202.689.504.908.874.218.37.336.79.336 1.243 0 .453-.118.873-.336 1.243-.219.37-.521.672-.908.874a2.53 2.53 0 01-1.277.319zm0-4.2a1.89 1.89 0 00-.924.236c-.269.151-.488.37-.639.639a1.825 1.825 0 00-.235.907c0 .336.084.638.235.907.151.269.37.487.639.638.269.151.588.235.924.235.336 0 .655-.084.924-.235.269-.151.488-.37.639-.638.151-.269.235-.571.235-.907 0-.336-.084-.639-.235-.907a1.664 1.664 0 00-.639-.639 1.934 1.934 0 00-.924-.235zm3.412 4.167V34.02h3.579v.656h-2.856v1.26h1.378c.571 0 1.008.117 1.294.352.302.252.47.605.47 1.059 0 .47-.168.84-.504 1.108-.319.252-.79.37-1.378.37h-1.983v-.017zm1.983-.621c.387 0 .689-.068.874-.219.185-.134.269-.336.269-.621 0-.27-.084-.47-.269-.605s-.487-.202-.891-.202h-1.26v1.647h1.277zm3.21.621v-4.133h-1.412v-.655h2.134v1.63h1.311c.572 0 1.009.134 1.311.386.303.27.471.656.471 1.16 0 .52-.168.923-.488 1.209-.319.269-.79.403-1.378.403h-1.949zm1.916-.621c.386 0 .689-.084.89-.252.185-.168.286-.403.286-.74 0-.638-.37-.924-1.176-.924h-1.21v1.916h1.21zm2.704.621V34.02h3.361v.656h-2.639v1.377h2.353v.655h-2.353v1.445h2.739v.655h-3.461zm8.017 1.025v-1.025h-3.731v1.025h-.689v-1.68h.353c.235-.017.403-.218.504-.622.118-.453.185-1.092.219-1.915l.05-1.596h3.311v4.133h.689v1.68h-.706zm-.706-1.68v-3.477h-1.949l-.034.99a11.176 11.176 0 01-.168 1.731c-.067.32-.151.571-.269.756h2.42zm5.495.655V35.28l-2.739 3.528h-.622V34.02h.722v3.545l2.74-3.545h.605v4.788h-.706zm5.345 0v-2.1h-2.621v2.1h-.706V34.02h.706v2.033h2.621V34.02h.706v4.788h-.706zm2.016 0V34.02h3.361v.656h-2.655v1.377h2.37v.655h-2.37v1.445h2.739v.655h-3.445zm7.613 0v-2.1h-2.605v2.1h-.722V34.02h.722v2.033h2.605V34.02h.706v4.788h-.706zm5.361 0V35.28l-2.74 3.528h-.605V34.02h.706v3.545l2.739-3.545h.622v4.788h-.722zm2.017 0V34.02h3.361v.656h-2.639v1.377h2.353v.655h-2.353v1.445h2.74v.655h-3.462zM3.226 38.74v-2.1H.486v2.1h-.588v-4.654h.589v2.017h2.739v-2.017h.588v4.654h-.588zm5.496 0l-.555-1.21H5.713l-.554 1.21h-.622l2.134-4.67h.555l2.134 4.67h-.638zm-.773-1.714l-1.009-2.25-1.008 2.25h2.017zm2.335 1.798c-.185 0-.37-.05-.588-.134l-.05-.017.167-.504.05.017a.964.964 0 00.404.084c.286 0 .504-.152.689-.454l.118-.202-1.883-3.561h.639l1.563 3.024 1.596-3.024h.622l-2.117 3.914a1.66 1.66 0 01-.538.622 1.027 1.027 0 01-.672.235zm6.773-.084v-1.865c-.47.185-.94.286-1.378.286-.537 0-.974-.135-1.277-.403-.302-.27-.47-.656-.47-1.143v-1.562h.588v1.512c0 .336.1.588.32.773.2.184.503.285.89.285.437 0 .89-.1 1.344-.302V34.07h.588v4.67h-.605zm5.343 0v-2.1h-2.738v2.1h-.605v-4.654h.605v2.017H22.4v-2.017h.588v4.654H22.4zm4.052.05c-.454 0-.874-.1-1.26-.302a2.146 2.146 0 01-.875-.857 2.285 2.285 0 01-.319-1.21c0-.453.1-.856.32-1.209.218-.353.503-.638.873-.857a2.59 2.59 0 011.26-.302c.454 0 .874.1 1.244.302.37.202.672.488.874.857.219.37.32.773.32 1.21 0 .453-.101.857-.32 1.21a2.375 2.375 0 01-.874.856c-.353.202-.773.302-1.243.302zm0-4.2a2.02 2.02 0 00-.958.236 1.68 1.68 0 00-.672.655c-.169.285-.236.588-.236.94 0 .354.084.656.236.941.168.286.386.504.672.656.285.15.605.235.958.235.352 0 .672-.084.94-.235.286-.152.505-.37.656-.656.151-.285.235-.587.235-.94s-.084-.655-.235-.941a1.753 1.753 0 00-.655-.655c-.27-.168-.588-.236-.941-.236zm5.041 1.546h-1.815v.52h1.815v-.52zm4.468 2.604v-4.133h-2.756v4.133h-.588v-4.654h3.933v4.654h-.589zm2.017 0v-4.67h1.765c.588 0 1.059.15 1.412.437.336.285.52.688.52 1.192s-.167.907-.52 1.193c-.336.286-.807.42-1.412.42h-1.16v1.445h-.605v-.017zm1.748-1.965c.437 0 .773-.101.992-.286.218-.185.336-.454.336-.79 0-.352-.118-.621-.336-.806-.236-.185-.572-.286-.992-.286h-1.16v2.168h1.16zm4.924 2.015c-.453 0-.873-.1-1.26-.302a2.145 2.145 0 01-.873-.857 2.284 2.284 0 01-.32-1.21c0-.453.101-.856.32-1.209.201-.353.504-.638.873-.857a2.59 2.59 0 011.26-.302c.455 0 .875.1 1.244.302.37.202.673.488.874.857.219.37.32.773.32 1.21 0 .453-.101.857-.32 1.21a2.51 2.51 0 01-.874.856c-.352.202-.773.302-1.243.302zm0-4.2a2.02 2.02 0 00-.957.236 1.68 1.68 0 00-.672.655 1.78 1.78 0 00-.236.94c0 .354.085.656.236.941.168.286.386.504.672.656.286.15.605.235.958.235s.672-.084.94-.235c.287-.152.505-.37.656-.656.151-.268.236-.587.236-.94s-.084-.655-.236-.941a1.64 1.64 0 00-.655-.655c-.269-.168-.588-.236-.941-.236zm6.84 4.15v-3.646l-2.823 3.646h-.52v-4.654h.588v3.663l2.823-3.663h.52v4.654h-.587zm3.21.05a2.78 2.78 0 01-.907-.15 2.386 2.386 0 01-.806-.454l-.034-.034.235-.454.05.05c.203.169.42.286.673.37.252.084.504.135.756.135.236 0 .47-.034.656-.118.201-.067.352-.185.47-.319a.69.69 0 00.168-.487c0-.252-.1-.437-.285-.571-.202-.135-.488-.202-.84-.202H53.81v-.504h1.008c.303 0 .555-.067.723-.202a.63.63 0 00.252-.52c0-.252-.1-.437-.32-.588-.218-.151-.503-.219-.84-.219a2.2 2.2 0 00-.638.101 2.9 2.9 0 00-.622.269l-.05.033-.202-.504.05-.016a2.895 2.895 0 011.496-.404c.32 0 .605.05.874.152.269.1.47.252.639.453.15.202.235.437.235.69 0 .251-.067.47-.218.654a1.092 1.092 0 01-.437.336c.235.084.42.202.57.37.186.202.27.454.27.74 0 .285-.084.52-.27.738a1.6 1.6 0 01-.671.47c-.32.118-.622.185-.958.185zm2.94-.05v-4.67h1.95c.504 0 .89.1 1.176.302.286.218.437.52.437.907 0 .27-.067.504-.201.69a1.492 1.492 0 01-.42.352c.252.067.453.202.588.353.168.201.269.453.269.773 0 .42-.152.739-.437.957-.286.218-.723.336-1.26.336H57.64zm2.084-.487c.757 0 1.126-.269 1.126-.823 0-.538-.37-.807-1.126-.807h-1.478v1.63h1.478zm-.15-2.117c.335 0 .604-.067.772-.202a.694.694 0 00.27-.57c0-.253-.085-.454-.27-.572-.185-.134-.437-.202-.773-.202H58.23v1.563h1.344v-.017zm4.991 2.654c-.454 0-.874-.1-1.26-.302a2.146 2.146 0 01-.874-.857 2.285 2.285 0 01-.32-1.21c0-.453.101-.856.32-1.209.201-.353.504-.638.873-.857a2.59 2.59 0 011.26-.302c.455 0 .875.1 1.244.302.37.202.673.488.874.857.219.37.32.773.32 1.21 0 .437-.101.857-.32 1.21a2.511 2.511 0 01-.874.856c-.353.202-.773.302-1.243.302zm0-4.2a2.02 2.02 0 00-.958.236 1.68 1.68 0 00-.672.655 1.78 1.78 0 00-.236.94c0 .354.084.656.236.941.168.286.386.504.672.656.286.15.605.235.958.235s.672-.084.94-.235c.287-.152.505-.37.656-.656.152-.268.236-.587.236-.94s-.084-.655-.236-.941a1.64 1.64 0 00-.655-.655c-.269-.168-.588-.236-.941-.236zm7.093 5.175V38.74h-3.865v1.025h-.555v-1.546h.286c.269-.017.454-.235.571-.672.118-.453.185-1.108.219-1.932l.05-1.529h3.193v4.133h.69v1.546h-.589zm-.706-1.546v-3.612h-2.067l-.033 1.059c-.017.689-.068 1.277-.169 1.73-.067.37-.184.655-.336.84h2.605v-.017zm4.184.571c-.454 0-.874-.1-1.244-.302a2.146 2.146 0 01-.873-.857 2.284 2.284 0 01-.32-1.21c0-.453.101-.856.32-1.209.218-.353.504-.638.873-.857a2.57 2.57 0 011.244-.302c.353 0 .672.05.958.168.285.118.538.286.756.504l.034.033-.387.387-.034-.034c-.336-.352-.79-.52-1.31-.52a2.02 2.02 0 00-.958.235 1.797 1.797 0 00-.672.655 1.78 1.78 0 00-.236.94c0 .354.084.656.236.941.168.27.386.504.672.656.286.168.605.235.958.235.52 0 .974-.185 1.31-.538l.034-.033.387.386-.034.034a1.995 1.995 0 01-.756.504 2.495 2.495 0 01-.958.184z" fill="#fff"/><path d="M78.597 38.74v-4.133H77v-.52h3.781v.52h-1.596v4.133h-.588zm2.925 0v-4.67h1.949c.504 0 .89.1 1.176.302.286.202.437.52.437.907 0 .27-.067.504-.202.69-.1.15-.252.251-.42.352.252.067.454.202.588.353.169.201.27.453.27.773 0 .42-.152.739-.438.957-.285.218-.722.336-1.26.336h-2.1zm2.066-.487c.757 0 1.126-.269 1.126-.823 0-.538-.37-.807-1.126-.807H82.11v1.63h1.478zm-.134-2.117c.336 0 .605-.067.773-.202a.694.694 0 00.269-.57c0-.253-.084-.454-.269-.572-.185-.134-.437-.202-.773-.202h-1.328v1.563h1.328v-.017zm2.94 2.604v-4.654h3.244v.521h-2.639v1.512h2.353v.521H87v1.58h2.74v.52h-3.345zm7.63 0v-2.1h-2.74v2.1h-.604v-4.654h.605v2.017h2.739v-2.017h.588v4.654h-.588zm5.344 0v-2.1h-2.74v2.1h-.605v-4.654h.605v2.017h2.74v-2.017h.588v4.654h-.588zm4.066.05c-.454 0-.874-.1-1.26-.302a2.14 2.14 0 01-.874-.857 2.447 2.447 0 01-.32-1.21c0-.453.101-.856.32-1.209.218-.353.504-.638.874-.857a2.585 2.585 0 011.26-.302c.454 0 .874.1 1.244.302.369.202.672.488.873.857.219.353.32.773.32 1.21 0 .453-.101.857-.32 1.21a2.374 2.374 0 01-.873.856c-.37.202-.79.302-1.244.302zm0-4.2c-.353 0-.672.084-.958.236-.286.15-.504.37-.672.655-.168.285-.235.588-.235.94 0 .354.084.656.235.941.168.286.386.504.672.656.286.15.605.235.958.235s.672-.084.941-.235c.286-.152.504-.37.655-.656.169-.285.236-.587.236-.94 0-.336-.084-.655-.236-.941a1.749 1.749 0 00-.655-.655 1.824 1.824 0 00-.941-.236zm3.48 4.15v-4.654h3.243v.521h-2.655v1.512h2.37v.521h-2.37v1.58h2.739v.52h-3.327zm8.049.05c-.453 0-.874-.1-1.26-.302a2.146 2.146 0 01-.874-.857 2.446 2.446 0 01-.319-1.21c0-.453.101-.856.319-1.209a2.38 2.38 0 01.874-.857 2.59 2.59 0 011.26-.302c.454 0 .874.1 1.244.302.37.202.672.488.874.857.218.37.319.773.319 1.21 0 .437-.101.857-.319 1.21a2.513 2.513 0 01-.874.856c-.37.202-.79.302-1.244.302zm0-4.2c-.353 0-.672.084-.958.236a1.68 1.68 0 00-.672.655c-.168.285-.235.588-.235.94 0 .354.084.656.235.941.168.286.387.504.672.656.286.15.605.235.958.235s.673-.084.941-.235a1.54 1.54 0 00.656-.656c.151-.268.235-.587.235-.94s-.084-.655-.235-.941a1.639 1.639 0 00-.656-.655c-.268-.168-.588-.236-.941-.236zm3.478 4.15v-4.67h3.445v.52h-2.856v1.378h1.428c.555 0 .975.118 1.26.336.286.235.437.571.437 1.008 0 .454-.151.806-.47 1.058-.303.236-.756.37-1.328.37h-1.916zm1.916-.487c.404 0 .723-.084.924-.235.202-.152.303-.37.303-.672 0-.303-.101-.504-.286-.655-.201-.152-.504-.219-.924-.219h-1.328v1.78h1.311zm3.277.487v-4.133h-1.411v-.537h2.016v1.63h1.378c.555 0 .975.134 1.261.369.302.252.437.621.437 1.109 0 .504-.152.89-.471 1.159-.302.269-.756.386-1.344.386h-1.866v.017zm1.849-.487c.403 0 .722-.084.924-.269.202-.168.303-.437.303-.79 0-.672-.404-.99-1.227-.99h-1.261v2.032h1.261v.017zm2.755.487v-4.654h3.244v.521h-2.639v1.512h2.353v.521h-2.353v1.58h2.739v.52h-3.344zm8.033 1.025V38.74h-3.865v1.025h-.554v-1.546h.285c.269-.017.454-.235.572-.672.117-.453.184-1.108.218-1.932l.051-1.529h3.192v4.133h.689v1.546h-.588zm-.706-1.546v-3.612h-2.067l-.033 1.059c-.017.689-.067 1.277-.168 1.73-.067.37-.185.655-.336.84h2.604v-.017zm5.497.521v-3.646l-2.84 3.646h-.521v-4.654h.588v3.663l2.84-3.663h.521v4.654h-.588zm5.345 0v-2.1h-2.74v2.1h-.605v-4.654h.605v2.017h2.74v-2.017h.588v4.654h-.588zm1.997 0v-4.654h3.244v.521h-2.639v1.512h2.353v.521h-2.353v1.58h2.74v.52h-3.345zm7.632 0v-2.1h-2.74v2.1h-.605v-4.654h.605v2.017h2.74v-2.017h.588v4.654h-.588zm5.36 0v-3.646l-2.84 3.646h-.521v-4.654h.588v3.663l2.84-3.663h.521v4.654h-.588zm2.016 0v-4.654h3.227v.521H164v1.512h2.353v.521H164v1.58h2.74v.52h-3.328zM3.764 34.137v4.553h-.47v-2.1H.436v2.1h-.488v-4.553h.488v2.033h2.856v-2.033h.471zm4.453 3.343H5.68l-.555 1.21h-.504l2.084-4.553h.47L9.26 38.69h-.504l-.538-1.21zm-.184-.403L6.94 34.624l-1.092 2.453h2.185zm5.477-2.94l-2.067 3.83c-.151.269-.32.47-.521.605-.202.134-.42.202-.655.202-.169 0-.353-.034-.555-.118l.134-.386c.152.067.303.084.437.084.303 0 .538-.168.74-.488l.134-.218-1.848-3.511h.52l1.597 3.091 1.63-3.091h.454zm4.068 0v4.553h-.47v-1.882a3.59 3.59 0 01-1.446.32c-.538 0-.958-.135-1.243-.387-.303-.269-.454-.622-.454-1.092v-1.495h.487v1.444c0 .353.118.622.336.824.219.201.538.285.925.285.453 0 .924-.1 1.394-.319v-2.234h.47v-.017zm5.344 0v4.553h-.47v-2.1h-2.857v2.1h-.488v-4.553h.488v2.033h2.857v-2.033h.47zm2.302 4.283a2.13 2.13 0 01-.857-.822 2.313 2.313 0 01-.303-1.176c0-.437.101-.84.303-1.193a2.13 2.13 0 01.857-.823c.37-.202.773-.303 1.227-.303.453 0 .857.101 1.226.303.37.201.656.47.858.823.201.353.319.756.319 1.193 0 .437-.1.84-.32 1.192a2.13 2.13 0 01-.857.824c-.37.201-.773.302-1.226.302a2.772 2.772 0 01-1.227-.32zm2.218-.369c.286-.168.521-.386.69-.672.167-.285.251-.604.251-.974a1.96 1.96 0 00-.252-.974 1.66 1.66 0 00-.689-.672 1.916 1.916 0 00-.974-.252 1.916 1.916 0 00-1.664.924 1.87 1.87 0 00-.252.974c0 .353.084.672.252.974.168.286.403.521.689.672.286.168.622.252.975.252.352 0 .672-.084.974-.252zm2.302-1.848h1.714v.403h-1.714v-.403zm6.758-2.066v4.553h-.471v-4.133h-2.89v4.133h-.471v-4.553h3.83zm4.603.42c.336.285.487.655.487 1.142 0 .488-.168.874-.487 1.143-.336.269-.79.42-1.362.42h-1.226v1.444h-.488v-4.552h1.714c.589-.017 1.042.117 1.362.403zm-.336 1.982c.235-.201.352-.47.352-.84s-.117-.655-.352-.856c-.236-.202-.589-.303-1.042-.303h-1.21v2.285h1.21c.453 0 .806-.1 1.042-.286zm2.656 1.881a2.13 2.13 0 01-.857-.822 2.313 2.313 0 01-.302-1.176c0-.437.1-.84.302-1.193a2.13 2.13 0 01.857-.823c.37-.202.773-.303 1.227-.303.454 0 .857.101 1.227.303.37.201.655.47.857.823.201.353.32.756.32 1.193 0 .437-.102.84-.32 1.192a2.13 2.13 0 01-.857.824c-.37.201-.773.302-1.227.302-.454 0-.857-.118-1.227-.32zm2.202-.369c.285-.168.52-.386.689-.672a1.87 1.87 0 00.252-.974c0-.353-.084-.672-.252-.974a1.66 1.66 0 00-.69-.672 1.916 1.916 0 00-.974-.252 1.916 1.916 0 00-1.664.924 1.871 1.871 0 00-.252.974c0 .353.084.672.252.974.168.286.404.521.69.672.285.168.621.252.974.252.37 0 .689-.084.975-.252zm2.57-3.914h.47v3.78l2.925-3.78h.437v4.553h-.47v-3.764l-2.925 3.764h-.437v-4.553zm8.049 2.57c.168.202.252.437.252.706a.995.995 0 01-.252.689 1.535 1.535 0 01-.655.453c-.27.101-.572.151-.891.151a2.681 2.681 0 01-1.68-.588l.184-.352c.202.168.42.302.69.386.252.084.52.134.772.134.253 0 .471-.033.69-.117a1.33 1.33 0 00.504-.336.82.82 0 00.184-.52c0-.27-.1-.471-.319-.606-.202-.15-.504-.218-.874-.218h-.974v-.386h.957c.32 0 .572-.068.757-.202.185-.135.269-.32.269-.571a.746.746 0 00-.337-.639 1.574 1.574 0 00-.873-.235 2.22 2.22 0 00-.656.1 2.406 2.406 0 00-.638.287l-.168-.404a2.82 2.82 0 011.462-.403c.302 0 .588.05.84.151.252.101.454.236.605.437a.996.996 0 01.218.655.985.985 0 01-.201.622c-.135.168-.32.302-.572.37.303.117.538.252.706.436zm4.872.017c.168.185.252.437.252.74 0 .386-.134.705-.42.906-.285.219-.689.32-1.226.32h-2.017v-4.553h1.899c.487 0 .874.1 1.143.302.269.202.403.487.403.874 0 .252-.067.47-.202.655a1.222 1.222 0 01-.554.386c.32.05.554.185.722.37zm-2.94-.52h1.394c.353 0 .622-.068.807-.22a.759.759 0 00.286-.62c0-.27-.101-.488-.286-.622-.185-.151-.454-.219-.807-.219h-1.394v1.68zM60.9 37.43c0-.572-.386-.857-1.176-.857h-1.546v1.73h1.546c.773 0 1.176-.285 1.176-.873zm2.437.99a2.13 2.13 0 01-.857-.822 2.313 2.313 0 01-.302-1.176c0-.437.1-.84.302-1.193a2.13 2.13 0 01.857-.823c.37-.202.773-.303 1.227-.303.454 0 .857.101 1.227.303.37.201.655.47.857.823.202.353.32.756.32 1.193 0 .437-.102.84-.32 1.192a2.13 2.13 0 01-.857.824c-.37.201-.773.302-1.227.302-.454 0-.857-.118-1.227-.32zm2.218-.369c.286-.168.521-.386.69-.672.168-.285.252-.604.252-.974a1.96 1.96 0 00-.252-.974 1.66 1.66 0 00-.69-.672 1.915 1.915 0 00-.974-.252 1.915 1.915 0 00-1.664.924 1.87 1.87 0 00-.252.974c0 .353.084.672.252.974.168.286.404.521.69.672.285.168.62.252.974.252.353 0 .672-.084.974-.252zm6.607.219v1.444h-.454V38.69h-3.983v1.024h-.453V38.27h.235c.302-.017.504-.252.621-.706.118-.453.185-1.109.219-1.949l.05-1.478h3.076v4.133h.689zm-3.53-.89c-.083.453-.235.755-.42.906h2.807v-3.73h-2.185l-.033 1.11c-.034.689-.084 1.26-.168 1.713zm5.293 1.058a2.13 2.13 0 01-.857-.824 2.375 2.375 0 01-.302-1.192c0-.437.1-.84.302-1.193a2.13 2.13 0 01.857-.823c.37-.202.773-.303 1.227-.303.336 0 .655.05.941.168.286.118.521.286.723.487l-.303.303c-.353-.353-.806-.538-1.344-.538-.353 0-.69.084-.975.252a1.768 1.768 0 00-.689.672 1.853 1.853 0 00-.252.958c0 .353.084.672.252.957.168.286.403.504.69.672.302.168.62.252.974.252.554 0 .991-.184 1.344-.554l.303.302a1.93 1.93 0 01-.74.504 2.466 2.466 0 01-.94.168 2.42 2.42 0 01-1.21-.268z" fill="#fff"/><path d="M80.73 34.557h-1.597v4.133h-.47v-4.133h-1.597v-.42h3.68v.42h-.016zm4.271 2.167c.168.185.252.437.252.74 0 .386-.134.705-.42.906-.285.219-.689.32-1.227.32H81.59v-4.553h1.899c.487 0 .874.1 1.143.302.268.202.403.487.403.874 0 .252-.067.47-.202.655-.134.168-.32.302-.554.386.319.05.554.185.722.37zm-2.94-.52h1.394c.353 0 .622-.068.807-.22a.759.759 0 00.285-.62c0-.27-.1-.488-.285-.622-.185-.151-.454-.219-.807-.219H82.06v1.68zm2.722 1.226c0-.572-.387-.857-1.177-.857H82.06v1.73h1.546c.773 0 1.177-.285 1.177-.873zm4.889.84v.42h-3.227v-4.553h3.126v.42h-2.638v1.613h2.352v.403h-2.352v1.697h2.739zm4.874-4.133v4.553h-.47v-2.1h-2.857v2.1h-.471v-4.553h.487v2.033h2.857v-2.033h.454zm5.343 0v4.553h-.47v-2.1h-2.857v2.1h-.488v-4.553h.488v2.033h2.856v-2.033h.471zm2.319 4.283a2.136 2.136 0 01-.857-.822 2.318 2.318 0 01-.302-1.176c0-.437.101-.84.302-1.193a2.13 2.13 0 01.857-.823c.37-.202.773-.303 1.227-.303.454 0 .857.101 1.227.303.37.201.655.47.857.823.202.353.319.756.319 1.193 0 .437-.101.84-.319 1.192a2.13 2.13 0 01-.857.824c-.37.201-.773.302-1.227.302-.454-.017-.874-.118-1.227-.32zm2.202-.369c.286-.168.521-.386.689-.672.168-.285.252-.604.252-.974a1.96 1.96 0 00-.252-.974 1.663 1.663 0 00-.689-.672 1.917 1.917 0 00-.975-.252 1.917 1.917 0 00-1.664.924 1.871 1.871 0 00-.252.974c0 .353.084.672.252.974.168.286.404.521.689.672.286.168.622.252.975.252s.672-.084.975-.252zm5.781.219v.42h-3.226v-4.553h3.126v.42h-2.639v1.613h2.353v.403h-2.353v1.697h2.739zm3.547.15a2.124 2.124 0 01-.857-.822 2.31 2.31 0 01-.303-1.176c0-.437.101-.84.303-1.193.201-.353.487-.622.857-.823a2.502 2.502 0 011.226-.303c.454 0 .857.101 1.227.303.37.201.656.47.857.823.202.353.32.756.32 1.193 0 .437-.101.84-.32 1.192a2.124 2.124 0 01-.857.824c-.37.201-.773.302-1.227.302a2.711 2.711 0 01-1.226-.32zm2.201-.369c.286-.168.521-.386.689-.672.168-.285.252-.604.252-.974a1.96 1.96 0 00-.252-.974 1.657 1.657 0 00-.689-.672 1.917 1.917 0 00-.975-.252 1.914 1.914 0 00-1.663.924 1.871 1.871 0 00-.252.974c0 .353.084.672.252.974.168.286.403.521.689.672.285.168.622.252.974.252.353 0 .689-.084.975-.252zm2.553-3.914h3.344v.403h-2.856v1.495h1.495c.538 0 .941.118 1.227.336.286.219.42.538.42.958 0 .437-.151.773-.454 1.008-.302.235-.739.353-1.294.353h-1.865v-4.553h-.017zm1.866 4.166c.42 0 .739-.084.957-.235.219-.168.32-.403.32-.722 0-.32-.101-.538-.32-.706-.218-.151-.537-.235-.957-.235h-1.378v1.898h1.378zm6.47-2.183c.285.235.42.604.42 1.075 0 .487-.152.856-.454 1.108-.302.252-.739.387-1.311.387h-1.798v-4.133h-1.412v-.42h1.899v1.63h1.429c.538 0 .941.117 1.227.352zm-.387 1.914c.219-.184.336-.47.336-.823 0-.705-.437-1.041-1.294-1.041h-1.327v2.133h1.327c.42 0 .74-.084.958-.269zm5.092.236v.42h-3.226v-4.553h3.125v.42h-2.638v1.613h2.353v.403h-2.353v1.697h2.739zm5.244 0v1.444h-.454V38.69h-3.983v1.024h-.453V38.27h.235c.302-.017.504-.252.622-.706.117-.453.185-1.109.218-1.949l.051-1.478h3.075v4.133h.689zm-3.529-.89c-.084.453-.235.755-.42.906h2.789v-3.73h-2.184l-.034 1.11c-.017.689-.067 1.26-.151 1.713zm4.502-3.243h.471v3.78l2.924-3.78h.437v4.553h-.471v-3.764l-2.924 3.764h-.437v-4.553zm9.176 0v4.553h-.47v-2.1h-2.857v2.1h-.488v-4.553h.488v2.033h2.857v-2.033h.47zm4.758 4.133v.42h-3.227v-4.553h3.126v.42h-2.639v1.613h2.353v.403h-2.353v1.697h2.74zm4.872-4.133v4.553h-.471v-2.1h-2.857v2.1h-.47v-4.553h.487v2.033h2.857v-2.033h.454zm1.546 0h.47v3.78l2.924-3.78h.437v4.553h-.47v-3.764l-2.925 3.764h-.436v-4.553zm8.587 4.133v.42h-3.226v-4.553h3.126v.42h-2.639v1.613h2.353v.403h-2.353v1.697h2.739z" fill="#fff"/><path opacity=".4" d="M3.764 34.137v4.553h-.47v-2.1H.436v2.1h-.488v-4.553h.488v2.033h2.856v-2.033h.471zm4.453 3.343H5.68l-.555 1.21h-.504l2.084-4.553h.47L9.26 38.69h-.504l-.538-1.21zm-.184-.403L6.94 34.624l-1.092 2.453h2.185zm5.477-2.94l-2.067 3.83c-.151.269-.32.47-.521.605-.202.134-.42.202-.655.202-.169 0-.353-.034-.555-.118l.134-.386c.152.067.303.084.437.084.303 0 .538-.168.74-.488l.134-.218-1.848-3.511h.52l1.597 3.091 1.63-3.091h.454zm4.068 0v4.553h-.47v-1.882a3.59 3.59 0 01-1.446.32c-.538 0-.958-.135-1.243-.387-.303-.269-.454-.622-.454-1.092v-1.495h.487v1.444c0 .353.118.622.336.824.219.201.538.285.925.285.453 0 .924-.1 1.394-.319v-2.234h.47v-.017zm5.344 0v4.553h-.47v-2.1h-2.857v2.1h-.488v-4.553h.488v2.033h2.857v-2.033h.47zm2.302 4.283a2.13 2.13 0 01-.857-.822 2.313 2.313 0 01-.303-1.176c0-.437.101-.84.303-1.193a2.13 2.13 0 01.857-.823c.37-.202.773-.303 1.227-.303.453 0 .857.101 1.226.303.37.201.656.47.858.823.201.353.319.756.319 1.193 0 .437-.1.84-.32 1.192a2.13 2.13 0 01-.857.824c-.37.201-.773.302-1.226.302a2.772 2.772 0 01-1.227-.32zm2.218-.369c.286-.168.521-.386.69-.672.167-.285.251-.604.251-.974a1.96 1.96 0 00-.252-.974 1.66 1.66 0 00-.689-.672 1.916 1.916 0 00-.974-.252 1.916 1.916 0 00-1.664.924 1.87 1.87 0 00-.252.974c0 .353.084.672.252.974.168.286.403.521.689.672.286.168.622.252.975.252.352 0 .672-.084.974-.252zm2.302-1.848h1.714v.403h-1.714v-.403zm6.758-2.066v4.553h-.471v-4.133h-2.89v4.133h-.471v-4.553h3.83zm4.603.42c.336.285.487.655.487 1.142 0 .488-.168.874-.487 1.143-.336.269-.79.42-1.362.42h-1.226v1.444h-.488v-4.552h1.714c.589-.017 1.042.117 1.362.403zm-.336 1.982c.235-.201.352-.47.352-.84s-.117-.655-.352-.856c-.236-.202-.589-.303-1.042-.303h-1.21v2.285h1.21c.453 0 .806-.1 1.042-.286zm2.656 1.881a2.13 2.13 0 01-.857-.822 2.313 2.313 0 01-.302-1.176c0-.437.1-.84.302-1.193a2.13 2.13 0 01.857-.823c.37-.202.773-.303 1.227-.303.454 0 .857.101 1.227.303.37.201.655.47.857.823.201.353.32.756.32 1.193 0 .437-.102.84-.32 1.192a2.13 2.13 0 01-.857.824c-.37.201-.773.302-1.227.302-.454 0-.857-.118-1.227-.32zm2.202-.369c.285-.168.52-.386.689-.672a1.87 1.87 0 00.252-.974c0-.353-.084-.672-.252-.974a1.66 1.66 0 00-.69-.672 1.916 1.916 0 00-.974-.252 1.916 1.916 0 00-1.664.924 1.871 1.871 0 00-.252.974c0 .353.084.672.252.974.168.286.404.521.69.672.285.168.621.252.974.252.37 0 .689-.084.975-.252zm2.57-3.914h.47v3.78l2.925-3.78h.437v4.553h-.47v-3.764l-2.925 3.764h-.437v-4.553zm8.049 2.57c.168.202.252.437.252.706a.995.995 0 01-.252.689 1.535 1.535 0 01-.655.453c-.27.101-.572.151-.891.151a2.681 2.681 0 01-1.68-.588l.184-.352c.202.168.42.302.69.386.252.084.52.134.772.134.253 0 .471-.033.69-.117a1.33 1.33 0 00.504-.336.82.82 0 00.184-.52c0-.27-.1-.471-.319-.606-.202-.15-.504-.218-.874-.218h-.974v-.386h.957c.32 0 .572-.068.757-.202.185-.135.269-.32.269-.571a.746.746 0 00-.337-.639 1.574 1.574 0 00-.873-.235 2.22 2.22 0 00-.656.1 2.406 2.406 0 00-.638.287l-.168-.404a2.82 2.82 0 011.462-.403c.302 0 .588.05.84.151.252.101.454.236.605.437a.996.996 0 01.218.655.985.985 0 01-.201.622c-.135.168-.32.302-.572.37.303.117.538.252.706.436zm4.872.017c.168.185.252.437.252.74 0 .386-.134.705-.42.906-.285.219-.689.32-1.226.32h-2.017v-4.553h1.899c.487 0 .874.1 1.143.302.269.202.403.487.403.874 0 .252-.067.47-.202.655a1.222 1.222 0 01-.554.386c.32.05.554.185.722.37zm-2.94-.52h1.394c.353 0 .622-.068.807-.22a.759.759 0 00.286-.62c0-.27-.101-.488-.286-.622-.185-.151-.454-.219-.807-.219h-1.394v1.68zM60.9 37.43c0-.572-.386-.857-1.176-.857h-1.546v1.73h1.546c.773 0 1.176-.285 1.176-.873zm2.437.99a2.13 2.13 0 01-.857-.822 2.313 2.313 0 01-.302-1.176c0-.437.1-.84.302-1.193a2.13 2.13 0 01.857-.823c.37-.202.773-.303 1.227-.303.454 0 .857.101 1.227.303.37.201.655.47.857.823.202.353.32.756.32 1.193 0 .437-.102.84-.32 1.192a2.13 2.13 0 01-.857.824c-.37.201-.773.302-1.227.302-.454 0-.857-.118-1.227-.32zm2.218-.369c.286-.168.521-.386.69-.672.168-.285.252-.604.252-.974a1.96 1.96 0 00-.252-.974 1.66 1.66 0 00-.69-.672 1.915 1.915 0 00-.974-.252 1.915 1.915 0 00-1.664.924 1.87 1.87 0 00-.252.974c0 .353.084.672.252.974.168.286.404.521.69.672.285.168.62.252.974.252.353 0 .672-.084.974-.252zm6.607.219v1.444h-.454V38.69h-3.983v1.024h-.453V38.27h.235c.302-.017.504-.252.621-.706.118-.453.185-1.109.219-1.949l.05-1.478h3.076v4.133h.689zm-3.53-.89c-.083.453-.235.755-.42.906h2.807v-3.73h-2.185l-.033 1.11c-.034.689-.084 1.26-.168 1.713zm5.293 1.058a2.13 2.13 0 01-.857-.824 2.375 2.375 0 01-.302-1.192c0-.437.1-.84.302-1.193a2.13 2.13 0 01.857-.823c.37-.202.773-.303 1.227-.303.336 0 .655.05.941.168.286.118.521.286.723.487l-.303.303c-.353-.353-.806-.538-1.344-.538-.353 0-.69.084-.975.252a1.768 1.768 0 00-.689.672 1.853 1.853 0 00-.252.958c0 .353.084.672.252.957.168.286.403.504.69.672.302.168.62.252.974.252.554 0 .991-.184 1.344-.554l.303.302a1.93 1.93 0 01-.74.504 2.466 2.466 0 01-.94.168 2.42 2.42 0 01-1.21-.268zm6.805-3.881h-1.597v4.133h-.47v-4.133h-1.597v-.42h3.68v.42h-.016zm4.271 2.167c.168.185.252.437.252.74 0 .386-.134.705-.42.906-.285.219-.689.32-1.227.32H81.59v-4.553h1.899c.487 0 .874.1 1.143.302.268.202.403.487.403.874 0 .252-.067.47-.202.655-.134.168-.32.302-.554.386.319.05.554.185.722.37zm-2.94-.52h1.394c.353 0 .622-.068.807-.22a.759.759 0 00.285-.62c0-.27-.1-.488-.285-.622-.185-.151-.454-.219-.807-.219H82.06v1.68zm2.722 1.226c0-.572-.387-.857-1.177-.857H82.06v1.73h1.546c.773 0 1.177-.285 1.177-.873zm4.889.84v.42h-3.227v-4.553h3.126v.42h-2.638v1.613h2.352v.403h-2.352v1.697h2.739zm4.874-4.133v4.553h-.47v-2.1h-2.857v2.1h-.471v-4.553h.487v2.033h2.857v-2.033h.454zm5.343 0v4.553h-.47v-2.1h-2.857v2.1h-.488v-4.553h.488v2.033h2.856v-2.033h.471zm2.319 4.283a2.136 2.136 0 01-.857-.822 2.318 2.318 0 01-.302-1.176c0-.437.101-.84.302-1.193a2.13 2.13 0 01.857-.823c.37-.202.773-.303 1.227-.303.454 0 .857.101 1.227.303.37.201.655.47.857.823.202.353.319.756.319 1.193 0 .437-.101.84-.319 1.192a2.13 2.13 0 01-.857.824c-.37.201-.773.302-1.227.302-.454-.017-.874-.118-1.227-.32zm2.202-.369c.286-.168.521-.386.689-.672.168-.285.252-.604.252-.974a1.96 1.96 0 00-.252-.974 1.663 1.663 0 00-.689-.672 1.917 1.917 0 00-.975-.252 1.917 1.917 0 00-1.664.924 1.871 1.871 0 00-.252.974c0 .353.084.672.252.974.168.286.404.521.689.672.286.168.622.252.975.252s.672-.084.975-.252zm5.781.219v.42h-3.226v-4.553h3.126v.42h-2.639v1.613h2.353v.403h-2.353v1.697h2.739zm3.547.15a2.124 2.124 0 01-.857-.822 2.31 2.31 0 01-.303-1.176c0-.437.101-.84.303-1.193.201-.353.487-.622.857-.823a2.502 2.502 0 011.226-.303c.454 0 .857.101 1.227.303.37.201.656.47.857.823.202.353.32.756.32 1.193 0 .437-.101.84-.32 1.192a2.124 2.124 0 01-.857.824c-.37.201-.773.302-1.227.302a2.711 2.711 0 01-1.226-.32zm2.201-.369c.286-.168.521-.386.689-.672.168-.285.252-.604.252-.974a1.96 1.96 0 00-.252-.974 1.657 1.657 0 00-.689-.672 1.917 1.917 0 00-.975-.252 1.914 1.914 0 00-1.663.924 1.871 1.871 0 00-.252.974c0 .353.084.672.252.974.168.286.403.521.689.672.285.168.622.252.974.252.353 0 .689-.084.975-.252zm2.553-3.914h3.344v.403h-2.856v1.495h1.495c.538 0 .941.118 1.227.336.286.219.42.538.42.958 0 .437-.151.773-.454 1.008-.302.235-.739.353-1.294.353h-1.865v-4.553h-.017zm1.866 4.166c.42 0 .739-.084.957-.235.219-.168.32-.403.32-.722 0-.32-.101-.538-.32-.706-.218-.151-.537-.235-.957-.235h-1.378v1.898h1.378zm6.47-2.183c.285.235.42.604.42 1.075 0 .487-.152.856-.454 1.108-.302.252-.739.387-1.311.387h-1.798v-4.133h-1.412v-.42h1.899v1.63h1.429c.538 0 .941.117 1.227.352zm-.387 1.914c.219-.184.336-.47.336-.823 0-.705-.437-1.041-1.294-1.041h-1.327v2.133h1.327c.42 0 .74-.084.958-.269zm5.092.236v.42h-3.226v-4.553h3.125v.42h-2.638v1.613h2.353v.403h-2.353v1.697h2.739zm5.244 0v1.444h-.454V38.69h-3.983v1.024h-.453V38.27h.235c.302-.017.504-.252.622-.706.117-.453.185-1.109.218-1.949l.051-1.478h3.075v4.133h.689zm-3.529-.89c-.084.453-.235.755-.42.906h2.789v-3.73h-2.184l-.034 1.11c-.017.689-.067 1.26-.151 1.713zm4.502-3.243h.471v3.78l2.924-3.78h.437v4.553h-.471v-3.764l-2.924 3.764h-.437v-4.553zm9.176 0v4.553h-.47v-2.1h-2.857v2.1h-.488v-4.553h.488v2.033h2.857v-2.033h.47zm4.758 4.133v.42h-3.227v-4.553h3.126v.42h-2.639v1.613h2.353v.403h-2.353v1.697h2.74zm4.872-4.133v4.553h-.471v-2.1h-2.857v2.1h-.47v-4.553h.487v2.033h2.857v-2.033h.454zm1.546 0h.47v3.78l2.924-3.78h.437v4.553h-.47v-3.764l-2.925 3.764h-.436v-4.553zm8.587 4.133v.42h-3.226v-4.553h3.126v.42h-2.639v1.613h2.353v.403h-2.353v1.697h2.739z" fill="#fff"/></g><defs><clipPath id="clip0_565_4859"><path fill="#fff" d="M0 0h166.723v40H0z"/></clipPath></defs></svg>