<?xml version="1.0" encoding="utf-8"?><svg viewBox="0 0 222 24" xmlns="http://www.w3.org/2000/svg" xmlns:xlink="http://www.w3.org/1999/xlink"><style>:root>svg{display:none}:root>svg:target{display:block}</style><svg fill="none" viewBox="0 0 222 16" id="icon-arrow-more" xmlns="http://www.w3.org/2000/svg"><path d="M221.707 8.707a1 1 0 000-1.414L215.343.929a1 1 0 10-1.414 1.414L219.586 8l-5.657 5.657a1 1 0 101.414 1.414l6.364-6.364zM0 9h221V7H0v2z" fill="currentColor"/></svg><svg fill="none" viewBox="0 0 8 12" id="icon-arrow-next" xmlns="http://www.w3.org/2000/svg"><path d="M1.5 11l5-5-5-5" stroke="#1E88E5" stroke-width="1.5" stroke-linecap="round" stroke-linejoin="round"/></svg><svg fill="none" viewBox="0 0 8 12" id="icon-arrow-prev" xmlns="http://www.w3.org/2000/svg"><path d="M6.5 11l-5-5 5-5" stroke="#1E88E5" stroke-width="1.5" stroke-linecap="round" stroke-linejoin="round"/></svg><svg fill="none" viewBox="0 0 10 6" id="icon-caret" xmlns="http://www.w3.org/2000/svg"><path d="M1 1l4 4 4-4" stroke="#1E88E5" stroke-linecap="round" stroke-linejoin="round"/></svg><svg fill="none" viewBox="0 0 22 22" id="icon-close" xmlns="http://www.w3.org/2000/svg"><rect x=".393" y="20" width="28" height="2" rx="1" transform="rotate(-45 .393 20)" fill="#A5A5A5"/><rect x="1.808" width="28" height="2" rx="1" transform="rotate(45 1.808 0)" fill="#A5A5A5"/></svg><svg fill="none" viewBox="0 0 14 11" id="icon-email" xmlns="http://www.w3.org/2000/svg"><path d="M9.072 6.003L7.899 7.179c-.475.478-1.312.488-1.798 0L4.93 6.003.717 10.228c.157.072.33.116.514.116H12.77c.183 0 .356-.043.513-.116L9.072 6.003z" fill="#1E88E5"/><path d="M12.77.5H1.23C1.048.5.875.543.718.616l4.5 4.515h.001v.001L6.683 6.6c.155.156.48.156.636 0l1.463-1.468.002-.001 4.5-4.515A1.217 1.217 0 0012.77.5zM.13 1.19c-.08.163-.13.346-.13.54v7.383c0 .195.05.377.13.541l4.22-4.232L.13 1.19zM13.869 1.19L9.65 5.421l4.219 4.233c.081-.164.13-.347.13-.542V1.731c0-.195-.049-.378-.13-.542z" fill="#1E88E5"/></svg><svg fill="none" viewBox="0 0 24 24" id="icon-filter" xmlns="http://www.w3.org/2000/svg"><path d="M20.5 4.444h-6.611M10.111 4.444H3.5M20.5 12H12M8.222 12H3.5M20.5 19.555h-4.722M12 19.555H3.5M13.889 2.556v3.777M8.222 10.111v3.778M15.778 17.667v3.777" stroke="#1E88E5" stroke-width="1.5" stroke-linecap="round" stroke-linejoin="round"/></svg><svg fill="none" viewBox="0 0 20 20" id="icon-instagram" xmlns="http://www.w3.org/2000/svg"><path d="M14.167 1.667H5.834a4.167 4.167 0 00-4.167 4.166v8.334a4.167 4.167 0 004.167 4.166h8.333a4.167 4.167 0 004.167-4.166V5.832a4.167 4.167 0 00-4.167-4.167z" stroke="currentColor" stroke-width="1.3" stroke-linecap="round" stroke-linejoin="round"/><path d="M13.334 9.475a3.333 3.333 0 11-6.594.978 3.333 3.333 0 016.594-.978zM14.583 5.417h.008" stroke="currentColor" stroke-width="1.3" stroke-linecap="round" stroke-linejoin="round"/></svg><svg fill="none" viewBox="0 0 9 13" id="icon-location" xmlns="http://www.w3.org/2000/svg"><path d="M4.5 0A4.338 4.338 0 00.167 4.333c0 .718.18 1.429.52 2.06l3.576 6.467a.27.27 0 00.474 0l3.578-6.47A4.338 4.338 0 004.5 0zm0 6.5a2.17 2.17 0 01-2.167-2.167A2.17 2.17 0 014.5 2.167a2.17 2.17 0 012.167 2.166A2.17 2.17 0 014.5 6.5z" fill="#1E88E5"/></svg><svg fill="none" viewBox="0 0 13 13" id="icon-tel" xmlns="http://www.w3.org/2000/svg"><path d="M11.456 12.167C5.413 12.175.826 7.534.833 1.544a.71.71 0 01.709-.71h1.87a.71.71 0 01.7.604c.123.833.366 1.643.72 2.406l.072.158a.5.5 0 01-.163.617c-.58.414-.8 1.246-.35 1.895A8.38 8.38 0 006.487 8.61c.65.45 1.482.23 1.895-.35a.5.5 0 01.618-.163l.156.072a8.772 8.772 0 002.407.72.71.71 0 01.605.701v1.87a.71.71 0 01-.71.708z" fill="#1E88E5"/></svg><svg fill="none" viewBox="0 0 20 19" id="icon-telegram" xmlns="http://www.w3.org/2000/svg"><path d="M.346 9.33l4.891 2.438c.19.093.412.086.593-.02l4.354-2.53-2.635 2.335a.626.626 0 00-.211.468v5.687c0 .6.766.853 1.125.376l2.114-2.81 5.228 2.977c.367.21.837-.001.922-.42l3.26-16.25a.625.625 0 00-.84-.705L.398 8.188a.626.626 0 00-.05 1.142zm18.192-6.874l-2.866 14.28-4.954-2.821a.626.626 0 00-.81.168l-1.32 1.755v-3.536l7.126-6.314c.564-.499-.085-1.386-.729-1.008l-9.491 5.518-3.327-1.657 16.37-6.385z" fill="currentColor"/></svg></svg>