<svg width="96" height="96" fill="none" xmlns="http://www.w3.org/2000/svg"><path fill-rule="evenodd" clip-rule="evenodd" d="M48 83.556c19.638 0 35.556-15.918 35.556-35.556 0-19.638-15.918-35.556-35.556-35.556-19.638 0-35.556 15.918-35.556 35.556 0 19.638 15.918 35.556 35.556 35.556zM48 88c22.091 0 40-17.909 40-40S70.091 8 48 8 8 25.909 8 48s17.909 40 40 40z" fill="#5AC29E"/><path fill-rule="evenodd" clip-rule="evenodd" d="M41.97 41.887c.237.884.324 1.855.035 2.65a1.111 1.111 0 01-1.618.572 15.883 15.883 0 01-1.702-1.238l-.434-.355c-.4-.325-.786-.64-1.186-.94-1.116-.834-2-1.274-2.767-1.236-.805.04-1.778.602-3.027 1.589-.353.278-.73.593-1.122.922-.862.72-1.796 1.5-2.682 2.069a1.111 1.111 0 01-1.702-.782c-.111-.811.057-1.825.375-2.816a12.358 12.358 0 011.545-3.146c1.377-2.016 3.613-3.916 6.606-3.791 2.89.122 5.031 1.815 6.32 3.66a9.206 9.206 0 011.356 2.842h.002zm11.875 0c-.24.884-.327 1.855-.038 2.65a1.11 1.11 0 001.62.572c.582-.351 1.158-.8 1.7-1.238l.435-.355c.4-.325.787-.64 1.187-.94 1.113-.834 2-1.274 2.764-1.236.807.04 1.778.602 3.03 1.589.35.278.728.593 1.122.922.86.72 1.793 1.5 2.682 2.069a1.112 1.112 0 001.7-.782c.111-.811-.058-1.825-.373-2.816a12.354 12.354 0 00-1.545-3.146c-1.378-2.016-3.616-3.916-6.609-3.791-2.889.122-5.029 1.815-6.32 3.66a9.27 9.27 0 00-1.355 2.842zM48 76.889c-8.973 0-16.75-6.773-20.573-16.667-.037-.095-.075-.19-.111-.286-.991-2.647 1.129-5.27 3.957-5.27H64.73c2.829 0 4.951 2.623 3.956 5.27a41.17 41.17 0 01-.11.286C64.752 70.116 56.974 76.89 48 76.89zM64.17 59.27a28.21 28.21 0 01-2.3 4.445H34.13a27.694 27.694 0 01-2.029-3.812v-.633H64.17z" fill="#5AC29E"/><path fill-rule="evenodd" clip-rule="evenodd" d="M64.16 68.16c.504-.656.987-1.34 1.444-2.051a32.443 32.443 0 003.078-6.173c.851-2.26-.573-4.505-2.77-5.112a4.445 4.445 0 00-1.185-.157H31.273c-.4 0-.798.053-1.184.16a4.2 4.2 0 00-2.431 1.77 3.694 3.694 0 00-.34 3.338c.224.591.463 1.177.715 1.756a32.028 32.028 0 002.362 4.418c.458.711.94 1.395 1.445 2.049 4.164 5.402 9.867 8.73 16.16 8.73 6.291 0 11.995-3.328 16.16-8.728zm.009-8.889a28.394 28.394 0 01-2.3 4.444H34.13a27.683 27.683 0 01-2.029-3.81v-.634H64.17z" fill="#5AC29E"/></svg>